<svg width="1059" height="1222" viewBox="0 0 1059 1222" fill="none" xmlns="http://www.w3.org/2000/svg">
<path d="M368.975 542.489L455.226 467.589M368.975 542.489L543.768 542.489M368.975 542.489L541.476 122.897M368.975 542.489L241.122 453.193M368.975 542.489L145.84 542.489M541.476 122.897L541.476 392.689M541.476 122.897L674.49 302.397M703.268 443.397L602.268 339.897L541.476 392.689M703.268 443.397L829.268 483.897M703.268 443.397L543.768 542.489M703.268 443.397L749.518 403.647M703.268 443.397L674.49 302.397M795.768 363.897L1011.98 542.489L908.768 542.489M795.768 363.897L829.268 483.897M795.768 363.897L749.518 403.647M908.768 542.489L829.268 483.897M908.768 542.489L711.768 542.489M541.476 392.689L455.226 467.589M543.768 542.489L711.768 542.489M543.768 542.489L455.226 467.589M829.268 483.897L711.768 542.489M749.518 403.647L674.49 302.397M241.122 453.193L113.268 363.897L17.7684 542.489L145.84 542.489M241.122 453.193L145.84 542.489" stroke="#00CCFF" stroke-width="15"/>
<rect y="549" width="1058" height="168" fill="black"/>
<path d="M63.7295 589.04V678H49.1375V589.04H63.7295ZM154.823 633.328C154.823 624.624 156.829 616.816 160.839 609.904C164.935 602.992 170.439 597.616 177.351 593.776C184.349 589.851 191.986 587.888 200.263 587.888C209.735 587.888 218.141 590.235 225.479 594.928C232.903 599.536 238.279 606.107 241.607 614.64H224.071C221.767 609.947 218.567 606.448 214.471 604.144C210.375 601.84 205.639 600.688 200.263 600.688C194.375 600.688 189.127 602.011 184.519 604.656C179.911 607.301 176.285 611.099 173.639 616.048C171.079 620.997 169.799 626.757 169.799 633.328C169.799 639.899 171.079 645.659 173.639 650.608C176.285 655.557 179.911 659.397 184.519 662.128C189.127 664.773 194.375 666.096 200.263 666.096C205.639 666.096 210.375 664.944 214.471 662.64C218.567 660.336 221.767 656.837 224.071 652.144H241.607C238.279 660.677 232.903 667.248 225.479 671.856C218.141 676.464 209.735 678.768 200.263 678.768C191.901 678.768 184.263 676.848 177.351 673.008C170.439 669.083 164.935 663.664 160.839 656.752C156.829 649.84 154.823 642.032 154.823 633.328ZM350.079 600.816V626.928H380.799V638.832H350.079V666.096H384.639V678H335.487V588.912H384.639V600.816H350.079Z" fill="#00CCFF"/>
<path d="M528.437 678L494.005 638.192V678H479.413V589.04H494.005V629.616L528.565 589.04H546.869L508.213 633.584L547.509 678H528.437ZM651.804 600.816V626.928H682.524V638.832H651.804V666.096H686.364V678H637.212V588.912H686.364V600.816H651.804ZM827.345 678L806.865 642.416H795.729V678H781.137V589.04H811.857C818.684 589.04 824.444 590.235 829.137 592.624C833.916 595.013 837.457 598.213 839.761 602.224C842.151 606.235 843.345 610.715 843.345 615.664C843.345 621.467 841.639 626.757 838.225 631.536C834.897 636.229 829.735 639.429 822.737 641.136L844.753 678H827.345ZM795.729 630.768H811.857C817.319 630.768 821.415 629.403 824.145 626.672C826.961 623.941 828.369 620.272 828.369 615.664C828.369 611.056 827.004 607.472 824.273 604.912C821.543 602.267 817.404 600.944 811.857 600.944H795.729V630.768ZM992.445 659.824H955.197L948.797 678H933.565L965.437 588.912H982.333L1014.2 678H998.845L992.445 659.824ZM988.349 647.92L973.885 606.576L959.293 647.92H988.349Z" fill="white"/>
<path d="M0 549H1058" stroke="#00CCFF" stroke-width="15"/>
<path d="M0 717H1058" stroke="white" stroke-width="15"/>
<path d="M46 742.5H155C160.523 742.5 165 746.977 165 752.5V811.5M46 742.5V805M46 742.5H24C18.4772 742.5 14 738.023 14 732.5V727C14 721.477 18.4772 717 24 717H208.5M208.5 717V849.5C208.5 855.023 204.023 859.5 198.5 859.5H126.5M208.5 717H233M111 859.5H126.5M233 717V950.5M233 717H257.5M233 950.5H178.5M233 950.5V1040C233 1045.52 228.523 1050 223 1050H111M257.5 717V1070.5M257.5 717H363.5M257.5 1070.5L186.192 1072.7C180.791 1072.87 176.5 1077.29 176.5 1082.7V1193.5M257.5 1070.5H302.25M347 1089.5V1080.5C347 1074.98 342.523 1070.5 337 1070.5H302.25M302.25 1070.5V1144M126.5 859.5V949C126.5 954.523 122.023 959 116.5 959H86.5M363.5 717V838M363.5 717H480.5M363.5 959V838M363.5 838H315.5C309.977 838 305.5 842.477 305.5 848V955M560 755H688.5C694.023 755 698.5 750.523 698.5 745V727C698.5 721.477 694.023 717 688.5 717H480.5M480.5 717V755" stroke="white" stroke-width="9"/>
<path d="M318.867 1157.5C318.867 1166.89 311.286 1174.5 301.934 1174.5C292.581 1174.5 285 1166.89 285 1157.5C285 1148.11 292.581 1140.5 301.934 1140.5C311.286 1140.5 318.867 1148.11 318.867 1157.5Z" fill="white"/>
<ellipse cx="301.934" cy="1157.5" rx="7.96875" ry="8" fill="black"/>
<path d="M380.867 967.5C380.867 976.889 373.286 984.5 363.934 984.5C354.581 984.5 347 976.889 347 967.5C347 958.111 354.581 950.5 363.934 950.5C373.286 950.5 380.867 958.111 380.867 967.5Z" fill="white"/>
<ellipse cx="363.934" cy="967.5" rx="7.96875" ry="8" fill="black"/>
<path d="M321.867 968.5C321.867 977.889 314.286 985.5 304.934 985.5C295.581 985.5 288 977.889 288 968.5C288 959.111 295.581 951.5 304.934 951.5C314.286 951.5 321.867 959.111 321.867 968.5Z" fill="white"/>
<ellipse cx="304.934" cy="968.5" rx="7.96875" ry="8" fill="black"/>
<path d="M363.867 1104.5C363.867 1113.89 356.286 1121.5 346.934 1121.5C337.581 1121.5 330 1113.89 330 1104.5C330 1095.11 337.581 1087.5 346.934 1087.5C356.286 1087.5 363.867 1095.11 363.867 1104.5Z" fill="white"/>
<ellipse cx="346.934" cy="1104.5" rx="7.96875" ry="8" fill="black"/>
<path d="M113.867 1050.5C113.867 1059.89 106.286 1067.5 96.9336 1067.5C87.5814 1067.5 80 1059.89 80 1050.5C80 1041.11 87.5814 1033.5 96.9336 1033.5C106.286 1033.5 113.867 1041.11 113.867 1050.5Z" fill="white"/>
<ellipse cx="96.9336" cy="1050.5" rx="7.96875" ry="8" fill="black"/>
<path d="M193.867 1204.5C193.867 1213.89 186.286 1221.5 176.934 1221.5C167.581 1221.5 160 1213.89 160 1204.5C160 1195.11 167.581 1187.5 176.934 1187.5C186.286 1187.5 193.867 1195.11 193.867 1204.5Z" fill="white"/>
<ellipse cx="176.934" cy="1204.5" rx="7.96875" ry="8" fill="black"/>
<path d="M181.867 950.5C181.867 959.889 174.286 967.5 164.934 967.5C155.581 967.5 148 959.889 148 950.5C148 941.111 155.581 933.5 164.934 933.5C174.286 933.5 181.867 941.111 181.867 950.5Z" fill="white"/>
<ellipse cx="164.934" cy="950.5" rx="7.96875" ry="8" fill="black"/>
<path d="M88.8672 959.5C88.8672 968.889 81.2858 976.5 71.9336 976.5C62.5814 976.5 55 968.889 55 959.5C55 950.111 62.5814 942.5 71.9336 942.5C81.2858 942.5 88.8672 950.111 88.8672 959.5Z" fill="white"/>
<ellipse cx="71.9336" cy="959.5" rx="7.96875" ry="8" fill="black"/>
<path d="M181.867 816.5C181.867 825.889 174.286 833.5 164.934 833.5C155.581 833.5 148 825.889 148 816.5C148 807.111 155.581 799.5 164.934 799.5C174.286 799.5 181.867 807.111 181.867 816.5Z" fill="white"/>
<ellipse cx="164.934" cy="816.5" rx="7.96875" ry="8" fill="black"/>
<path d="M62.8672 816.5C62.8672 825.889 55.2858 833.5 45.9336 833.5C36.5814 833.5 29 825.889 29 816.5C29 807.111 36.5814 799.5 45.9336 799.5C55.2858 799.5 62.8672 807.111 62.8672 816.5Z" fill="white"/>
<ellipse cx="45.9336" cy="816.5" rx="7.96875" ry="8" fill="black"/>
<path d="M111.867 860C111.867 869.389 104.286 877 94.9336 877C85.5814 877 78 869.389 78 860C78 850.611 85.5814 843 94.9336 843C104.286 843 111.867 850.611 111.867 860Z" fill="white"/>
<ellipse cx="94.9336" cy="860" rx="7.96875" ry="8" fill="black"/>
<path d="M496.867 768.5C496.867 777.889 489.286 785.5 479.934 785.5C470.581 785.5 463 777.889 463 768.5C463 759.111 470.581 751.5 479.934 751.5C489.286 751.5 496.867 759.111 496.867 768.5Z" fill="white"/>
<ellipse cx="479.934" cy="768.5" rx="7.96875" ry="8" fill="black"/>
<path d="M562.867 755.5C562.867 764.889 555.286 772.5 545.934 772.5C536.581 772.5 529 764.889 529 755.5C529 746.111 536.581 738.5 545.934 738.5C555.286 738.5 562.867 746.111 562.867 755.5Z" fill="white"/>
<ellipse cx="545.934" cy="755.5" rx="7.96875" ry="8" fill="black"/>
</svg>
